PathFileType	4	(X/Y/Z)	C:/Users/opensim2020/Desktop/walking_exp_matlab/subject03_walking08_straight_04.trc	
DataRate	CameraRate	NumFrames	NumMarkers	Units	OrigDataRate	OrigDataStartFrame	OrigNumFrames	
100.00	100.00	7	51	mm	100.00	3579	303	
Frame#	Time	LFHD			RFHD			LBHD			RBHD			C7			T10			CLAV			STRN			RBAK			LSHO			LUPA			LELB			LFRM			LWRA			LWRB			LFIN			RSHO			RUPA			RELB			RFRM			RWRA			RWRB			RFIN			LASI			RASI			LPSI			RPSI			LTHI			LKNE			LTIB			LANK			LHEE			LTOE			RTHI			RKNE			RTIB			RANK			RHEE			RTOE			*39			*40			*41			*42			*43			*44			*45			*46			*47			*48			*49			*50			
		X1	Y1	Z1	X2	Y2	Z2	X3	Y3	Z3	X4	Y4	Z4	X5	Y5	Z5	X6	Y6	Z6	X7	Y7	Z7	X8	Y8	Z8	X9	Y9	Z9	X10	Y10	Z10	X11	Y11	Z11	X12	Y12	Z12	X13	Y13	Z13	X14	Y14	Z14	X15	Y15	Z15	X16	Y16	Z16	X17	Y17	Z17	X18	Y18	Z18	X19	Y19	Z19	X20	Y20	Z20	X21	Y21	Z21	X22	Y22	Z22	X23	Y23	Z23	X24	Y24	Z24	X25	Y25	Z25	X26	Y26	Z26	X27	Y27	Z27	X28	Y28	Z28	X29	Y29	Z29	X30	Y30	Z30	X31	Y31	Z31	X32	Y32	Z32	X33	Y33	Z33	X34	Y34	Z34	X35	Y35	Z35	X36	Y36	Z36	X37	Y37	Z37	X38	Y38	Z38	X39	Y39	Z39	X40	Y40	Z40	X41	Y41	Z41	X42	Y42	Z42	X43	Y43	Z43	X44	Y44	Z44	X45	Y45	Z45	X46	Y46	Z46	X47	Y47	Z47	X48	Y48	Z48	X49	Y49	Z49	X50	Y50	Z50	X51	Y51	Z51	

228	2.270	1493.08313	-483.33362	1623.54114	1360.25732	-477.04562	1629.09009	1493.10803	-355.75946	1578.91199	1362.21973	-354.39786	1584.49036	1431.60596	-320.86270	1422.40942	1428.54309	-290.35339	1107.37500	1433.31201	-442.33472	1344.69409	1439.71716	-486.01572	1180.93909	1332.79041	-269.94659	1246.56079	1588.45654	-393.23215	1382.89099	1660.20374	-370.86282	1186.01746	1675.11987	-371.15240	1063.22241	1680.92529	-389.67368	934.22076	1656.04211	-400.85519	813.58545	1705.42908	-376.01611	823.06378	1699.77185	-381.32758	737.83734	1272.73511	-401.25964	1368.92139	1200.10315	-429.86279	1148.61975	1188.37891	-464.70413	1041.31128	1187.50696	-503.78436	910.18817	1225.40491	-546.08240	821.08698	1178.65051	-520.25110	811.58167	1188.90845	-554.82831	746.57220	1551.35852	-455.76785	946.06848	1313.44910	-465.53232	947.22656	1497.20325	-295.03503	963.39697	1347.80688	-303.22937	976.13879	1603.45386	-456.58270	644.77197	1581.80823	-505.38464	471.72647	1574.92383	-377.18896	321.01495	1531.88525	-255.19402	153.13998	1489.42969	-203.31572	141.29962	1518.38879	-363.40985	53.74491	1282.16296	-414.98337	650.49762	1324.61365	-428.43268	471.78079	1327.49585	-380.77722	286.27179	1384.36536	-350.90503	73.87354	1436.94482	-308.47321	42.41196	1391.70593	-492.24500	38.13423	1446.86243	-398.53088	1685.36646																																	 
229	2.280	1493.13867	-491.18381	1623.27917	1360.30005	-484.61432	1628.82373	1493.55945	-363.48120	1579.05115	1362.58850	-361.78091	1584.55444	1431.95398	-327.94931	1422.63000	1428.23730	-297.30148	1107.35071	1433.43384	-449.33453	1344.54163	1439.51758	-492.94244	1180.80261	1332.37207	-277.19104	1246.87170	1588.63330	-400.08765	1382.55835	1660.58325	-376.60782	1185.80261	1675.63135	-376.05081	1063.06702	1681.57556	-394.22546	934.03455	1656.73425	-405.71591	813.55432	1705.85425	-380.31860	822.79620	1700.13318	-386.15375	737.65637	1272.97144	-408.61581	1369.22949	1199.69226	-438.70099	1149.39856	1187.78162	-474.50272	1042.52576	1187.23047	-515.79633	912.11383	1225.30481	-559.72247	823.74463	1178.74146	-533.89838	813.65509	1189.04883	-569.77234	749.32764	1550.85754	-463.38635	946.71924	1313.15967	-472.20633	946.97369	1497.29065	-302.57645	963.13385	1347.86707	-310.04797	975.85815	1602.99963	-468.69931	646.40118	1580.62878	-519.50671	473.90964	1574.74573	-395.94315	319.08475	1532.55701	-280.05191	146.45775	1490.32471	-228.54208	132.19801	1519.32886	-392.38516	51.99293	1282.34460	-420.44406	650.05090	1324.79834	-432.67978	471.33417	1327.65247	-383.34161	286.20337	1384.55981	-351.12442	73.92325	1437.23511	-308.58182	42.56357	1391.70483	-492.32846	38.07801	1447.09436	-406.47787	1685.36816																																	 
230	2.290	1493.16479	-499.00760	1622.94226	1360.35266	-492.06436	1628.46216	1493.95129	-371.20218	1579.06934	1363.08167	-369.17297	1584.59387	1432.03101	-335.19131	1422.48926	1427.83337	-304.28912	1107.21997	1433.67102	-456.50031	1344.38623	1439.36743	-499.87930	1180.65698	1331.87048	-284.66837	1246.86108	1588.76379	-407.05508	1382.01990	1660.92554	-382.49677	1185.43457	1676.18848	-381.09644	1062.75891	1682.14160	-398.98401	933.73828	1657.36414	-410.80884	813.42749	1706.23914	-384.90613	822.36945	1700.54443	-392.29471	737.89807	1273.16565	-415.99561	1369.39014	1199.35181	-447.38455	1150.06653	1187.17554	-484.34174	1043.62659	1186.99438	-527.82367	913.89404	1225.37915	-573.28381	826.59937	1179.00903	-547.34894	815.67755	1189.36877	-584.24707	752.11847	1550.40637	-470.96921	947.22809	1312.81250	-478.98495	946.84210	1497.51355	-309.83527	962.99524	1348.03723	-316.72580	975.50708	1602.82178	-480.35507	647.87561	1579.45081	-533.15601	476.06268	1574.52429	-414.51599	317.04425	1533.15845	-305.40875	139.76735	1491.14075	-254.40480	122.95145	1520.40283	-421.71445	50.41447	1282.61023	-425.88989	649.57245	1324.98767	-436.84027	470.88574	1327.94128	-385.79379	286.10303	1384.78650	-351.36676	74.02047	1437.33203	-309.20993	42.60445	1391.79700	-492.42532	38.06941	1447.69104	-414.70889	1685.43176																																	 
231	2.300	1493.25769	-506.79218	1622.54517	1360.47668	-499.46396	1628.06482	1494.28943	-379.04788	1578.92371	1363.59399	-376.55124	1584.37695	1432.34009	-342.31699	1422.43408	1427.64685	-311.16763	1107.09912	1433.85425	-463.49924	1344.08691	1439.22876	-506.75946	1180.26794	1331.55151	-291.83118	1246.98450	1589.06091	-413.79205	1381.43579	1661.20435	-388.40936	1184.93262	1676.67761	-386.20062	1062.29773	1682.70422	-403.85706	933.28241	1657.75330	-416.17783	813.10455	1706.53577	-389.70892	821.83228	1700.42908	-396.93521	737.03809	1273.37720	-423.31723	1369.43567	1199.01489	-456.09232	1150.64697	1186.72192	-494.02740	1044.63196	1186.81201	-539.51147	915.59717	1225.08203	-587.18475	829.53894	1179.30310	-560.64868	817.61139	1190.01135	-598.72015	754.96320	1549.84583	-479.07190	947.93451	1312.25610	-485.03271	946.27997	1497.77954	-317.09879	962.71503	1348.22864	-323.44342	974.99231	1602.72986	-491.65402	649.11963	1578.36816	-546.34949	478.07098	1574.26465	-432.94861	314.82422	1533.47656	-331.07382	133.03506	1491.59888	-280.87683	113.79182	1521.38672	-451.23138	48.93507	1282.87842	-431.16104	649.08539	1325.18176	-440.90607	470.42474	1328.20154	-388.13907	285.98541	1384.92395	-351.61130	74.23331	1437.48254	-309.27313	42.84208	1391.62341	-492.37360	38.11991	1447.67041	-422.15060	1684.91016																																	 
232	2.310	1493.39441	-514.51105	1622.05151	1360.60498	-506.80914	1627.56152	1494.92749	-386.56107	1578.64380	1364.04236	-383.82141	1584.03430	1432.41187	-349.64496	1421.98669	1427.45105	-318.19556	1106.77222	1434.04089	-470.56766	1343.61621	1439.04102	-513.63721	1179.71143	1331.18799	-298.88693	1247.12891	1589.34570	-420.69751	1380.70264	1661.46118	-394.43518	1184.26819	1677.14429	-391.38443	1061.75305	1683.19507	-408.93146	932.71381	1658.28015	-421.71054	812.71606	1706.74194	-394.83722	821.17560	1700.53882	-402.67633	736.33698	1273.59827	-430.73291	1369.45691	1198.71411	-464.83118	1151.13086	1186.34216	-503.62100	1045.49097	1186.86035	-551.16309	917.19250	1225.42419	-600.39825	832.17273	1179.90063	-573.75848	819.42969	1190.65100	-613.06726	757.55048	1549.47083	-486.70563	948.20270	1311.86853	-491.48035	945.76263	1498.14734	-324.28369	962.35907	1348.53308	-330.02594	974.45862	1602.93518	-502.86984	650.25732	1577.41675	-558.99799	479.86084	1573.94690	-451.24411	312.51859	1533.89526	-357.41965	126.18153	1491.77283	-307.57047	104.68245	1522.51355	-481.37622	48.09174	1283.44397	-436.45261	648.46057	1325.29541	-444.83881	469.95267	1328.41565	-390.44833	285.77698	1385.08655	-351.89078	74.41426	1437.60352	-309.35889	43.10756	1391.63757	-492.41043	38.06165	1448.44226	-430.22934	1684.78125																																	 
233	2.320	1493.53162	-522.20795	1621.48669	1360.77246	-514.14563	1627.01953	1495.64038	-394.21091	1578.22839	1364.58875	-391.06534	1583.66553	1432.84302	-356.81357	1421.71472	1427.48218	-325.03931	1106.44580	1434.23145	-477.72818	1343.11499	1438.92090	-520.64154	1179.25647	1330.99829	-306.10052	1247.02881	1589.60571	-427.65280	1379.87878	1661.74768	-400.51968	1183.52063	1677.58643	-396.62540	1061.04663	1683.65967	-414.20065	932.07391	1658.69678	-427.08215	812.01874	1706.89417	-400.26279	820.42542	1700.56262	-408.87732	735.73260	1273.91760	-438.12866	1369.33008	1198.51050	-473.47104	1151.49377	1186.08459	-513.16565	1046.24451	1186.97656	-562.65021	918.76483	1226.05371	-612.74799	834.60968	1180.51685	-586.71075	821.24640	1191.48303	-626.96875	760.11719	1549.17334	-494.15903	948.26959	1311.51440	-497.87854	945.20734	1498.60449	-331.58871	961.79877	1348.91638	-336.66138	973.76318	1603.16638	-513.78168	651.25543	1576.36218	-570.93182	481.28555	1573.53625	-469.29071	310.23038	1534.03625	-383.69403	119.68503	1491.78394	-335.30661	95.59155	1523.58997	-511.34509	47.20227	1284.14478	-441.73120	647.85382	1325.42615	-448.73990	469.32538	1328.62134	-392.81024	285.53757	1385.20886	-352.29193	74.50359	1437.59680	-308.69858	43.74594	1391.62329	-492.46335	38.01238	1448.34998	-437.47125	1684.00598																																	 
234	2.330	1493.72559	-529.93005	1620.79895	1361.00500	-521.53864	1626.38306	1496.23840	-401.85382	1577.73328	1365.18762	-398.40628	1583.13916	1432.99268	-364.17380	1421.15381	1427.67981	-332.07849	1105.96765	1434.45557	-484.89267	1342.47607	1438.75854	-527.61017	1178.52283	1330.89294	-313.35257	1246.82336	1589.79285	-434.82590	1378.92273	1662.04016	-406.66547	1182.71948	1678.00867	-401.99536	1060.25964	1684.04297	-419.68295	931.36066	1659.05725	-433.63190	811.81433	1706.93481	-405.89185	819.60724	1700.48401	-415.27469	735.04468	1274.18677	-445.47253	1369.10950	1198.34912	-482.10071	1151.71582	1185.92468	-522.63928	1046.88025	1187.26807	-573.96014	920.14093	1226.59119	-625.88068	837.19183	1181.46045	-599.49255	823.14172	1192.60559	-641.11377	762.69904	1548.92688	-501.82123	948.30969	1311.22803	-504.25031	944.59100	1499.11243	-338.80878	961.16644	1349.37695	-343.22061	972.99536	1603.46899	-524.37372	652.13062	1575.56958	-582.60358	482.62903	1573.10461	-487.24097	307.80957	1533.99023	-410.24298	113.57365	1491.82690	-363.13370	87.43761	1524.73083	-541.25153	46.62785	1284.71790	-446.85098	647.21759	1325.50085	-452.58249	468.73227	1328.78271	-395.17868	285.32712	1385.32556	-352.51746	74.76977	1437.89307	-309.43478	43.68619	1391.67102	-492.51627	37.99192	1449.19946	-445.54025	1683.67822																																	 
